<?xml version="1.0" encoding="UTF-8"?>
<svg version="1.1" xmlns="http://www.w3.org/2000/svg" width="500" height="500">
<path d="M0 0 C3.16770477 1.3226479 6.02236293 3.0716743 8.9375 4.875 C9.76072754 5.36806641 10.58395508 5.86113281 11.43212891 6.36914062 C13.9663453 7.89463856 16.48497219 9.44310153 19 11 C19.77843262 11.47985352 20.55686523 11.95970703 21.35888672 12.45410156 C24.81088597 14.58654746 28.25230212 16.7344684 31.6796875 18.90625 C34.43270032 20.6422675 37.20092657 22.3397131 40 24 C39.505 25.485 39.505 25.485 39 27 C37.81672119 26.97268799 36.63344238 26.94537598 35.41430664 26.91723633 C30.93891763 26.82907321 26.46566766 26.81586501 21.98950195 26.82299805 C20.06843042 26.81610789 18.14731247 26.79004383 16.22680664 26.74291992 C2.00934397 26.41228126 -6.94577725 28.78299855 -18.19032288 37.60868835 C-21.04236098 39.80138548 -24.0475852 41.72609042 -27.0625 43.6875 C-28.7091613 44.79043153 -30.35535533 45.89406361 -32 47 C-30.41906946 48.12837409 -28.83515284 49.25256518 -27.25 50.375 C-26.36828125 51.00148437 -25.4865625 51.62796875 -24.578125 52.2734375 C-22.42585021 53.71480941 -20.34539477 54.91498093 -18 56 C-18 56.66 -18 57.32 -18 58 C-17.42024414 58.12076904 -16.84048828 58.24153809 -16.24316406 58.3659668 C-12.36870879 59.46108656 -9.15456604 61.71021054 -5.75 63.8125 C-5.00492188 64.25142578 -4.25984375 64.69035156 -3.4921875 65.14257812 C-2.78835937 65.57634766 -2.08453125 66.01011719 -1.359375 66.45703125 C-0.71452148 66.84866455 -0.06966797 67.24029785 0.59472656 67.64379883 C1.0584668 68.09134521 1.52220703 68.5388916 2 69 C2 70.32 2 71.64 2 73 C0.51879883 74.44799805 0.51879883 74.44799805 -1.54296875 75.76171875 C-2.28740234 76.24060547 -3.03183594 76.71949219 -3.79882812 77.21289062 C-4.58708984 77.69951172 -5.37535156 78.18613281 -6.1875 78.6875 C-6.95642578 79.18572266 -7.72535156 79.68394531 -8.51757812 80.19726562 C-12.35956268 82.62777431 -15.41759777 84.4195343 -20 85 C-33.34586231 80.67218842 -46.87347264 70.39216508 -58 62 C-60.16580027 57.66839947 -59.31881606 51.94525856 -59.375 47.1875 C-59.41238281 45.99833984 -59.44976562 44.80917969 -59.48828125 43.58398438 C-59.57675817 34.82968514 -59.57675817 34.82968514 -56.87109375 30.9375 C-55.92363281 30.298125 -54.97617188 29.65875 -54 29 C-53.01386719 28.30519531 -52.02773437 27.61039063 -51.01171875 26.89453125 C-49.91472656 26.20746094 -48.81773438 25.52039063 -47.6875 24.8125 C-47.08284912 24.43158203 -46.47819824 24.05066406 -45.85522461 23.65820312 C-44.56713127 22.84810224 -43.27712455 22.04103681 -41.98535156 21.23681641 C-40.00380644 20.0023713 -38.02864741 18.75825053 -36.0546875 17.51171875 C-7.19537525 -0.67166363 -7.19537525 -0.67166363 0 0 Z " fill="#232F62" transform="translate(147,175)"/>
<path d="M0 0 C2.60787223 1.29661885 4.80471392 2.56524281 7.1875 4.1875 C8.19224365 4.84613037 8.19224365 4.84613037 9.21728516 5.51806641 C10.68332375 6.4797477 12.14540537 7.44748139 13.60400391 8.42041016 C16.18661067 10.12302538 18.79815538 11.77322832 21.41796875 13.41796875 C23.23725535 14.56987642 25.05626962 15.72221432 26.875 16.875 C27.74922607 17.4218042 28.62345215 17.9686084 29.52416992 18.53198242 C30.33861572 19.0551001 31.15306152 19.57821777 31.9921875 20.1171875 C32.71776855 20.57722168 33.44334961 21.03725586 34.19091797 21.51123047 C36.98267776 23.80868677 37.8751133 25.83690425 38.25878906 29.41015625 C38.26217285 30.72306641 38.26217285 30.72306641 38.265625 32.0625 C38.26949219 33.50496094 38.26949219 33.50496094 38.2734375 34.9765625 C38.26570313 35.97429687 38.25796875 36.97203125 38.25 38 C38.26160156 39.49660156 38.26160156 39.49660156 38.2734375 41.0234375 C38.27085937 41.98507813 38.26828125 42.94671875 38.265625 43.9375 C38.26336914 44.81277344 38.26111328 45.68804687 38.25878906 46.58984375 C37.98397638 49.14923126 37.28961635 50.79215631 36 53 C35.34 53 34.68 53 34 53 C34 53.66 34 54.32 34 55 C32.02 55.66 30.04 56.32 28 57 C28 57.66 28 58.32 28 59 C26.865625 59.598125 25.73125 60.19625 24.5625 60.8125 C19.81949187 63.44169506 15.29124767 66.35468047 10.75 69.3125 C10.01249512 69.7883252 9.27499023 70.26415039 8.51513672 70.75439453 C5.11661866 72.95037149 1.74383195 75.16495553 -1.56640625 77.4921875 C-3.17322266 78.57886719 -3.17322266 78.57886719 -4.8125 79.6875 C-5.72644531 80.33074219 -6.64039063 80.97398437 -7.58203125 81.63671875 C-13.55097813 84.01747585 -19.70139805 84.33474738 -25.7253418 81.8972168 C-28.39991088 80.38589948 -30.9121878 78.74884576 -33.4375 77 C-35.25905859 75.80460217 -37.0806731 74.60928954 -38.90234375 73.4140625 C-39.7722998 72.82915039 -40.64225586 72.24423828 -41.53857422 71.64160156 C-44.8059745 69.46247049 -48.14146634 67.40956828 -51.5 65.375 C-52.4590625 64.78460938 -53.418125 64.19421875 -54.40625 63.5859375 C-56.19645697 62.491323 -58.01113749 61.4360964 -59.84375 60.4140625 C-60.5553125 59.94742188 -61.266875 59.48078125 -62 59 C-62 58.34 -62 57.68 -62 57 C-60.85523193 56.98541748 -59.71046387 56.97083496 -58.53100586 56.95581055 C-54.26100303 56.89759239 -49.99151462 56.82036172 -45.72192383 56.73754883 C-43.87825912 56.70440974 -42.03449564 56.67634387 -40.19067383 56.65356445 C-37.53163792 56.61981488 -34.87349813 56.56749034 -32.21484375 56.51171875 C-31.39789536 56.50532883 -30.58094696 56.4989389 -29.73924255 56.49235535 C-22.93769918 56.31981379 -17.97247673 54.43703065 -12.203125 50.765625 C-11.55923828 50.35940918 -10.91535156 49.95319336 -10.25195312 49.53466797 C-9.59130859 49.11072754 -8.93066406 48.68678711 -8.25 48.25 C-7.55841797 47.81187988 -6.86683594 47.37375977 -6.15429688 46.92236328 C-4.0998709 45.61954495 -2.04973993 44.31017434 0 43 C1.16113991 42.26251925 2.32257382 41.52550108 3.484375 40.7890625 C5.99245778 39.19714468 8.49772829 37.60102978 11 36 C4.00346773 30.59015431 -3.22008272 25.96148941 -10.89624023 21.59033203 C-15.47525217 18.96809417 -19.75083936 16.13125319 -24 13 C-22.50881392 8.52644177 -19.25900443 7.23913735 -15.375 4.8125 C-14.67503906 4.34908203 -13.97507813 3.88566406 -13.25390625 3.40820312 C-8.7162728 0.55008335 -5.49963558 -0.90301884 0 0 Z " fill="#4E8590" transform="translate(153,210)"/>
<path d="M0 0 C2.60787223 1.29661885 4.80471392 2.56524281 7.1875 4.1875 C8.19224365 4.84613037 8.19224365 4.84613037 9.21728516 5.51806641 C10.68332375 6.4797477 12.14540537 7.44748139 13.60400391 8.42041016 C16.18661067 10.12302538 18.79815538 11.77322832 21.41796875 13.41796875 C23.23725535 14.56987642 25.05626962 15.72221432 26.875 16.875 C27.74922607 17.4218042 28.62345215 17.9686084 29.52416992 18.53198242 C30.74583862 19.31665894 30.74583862 19.31665894 31.9921875 20.1171875 C32.71776855 20.57722168 33.44334961 21.03725586 34.19091797 21.51123047 C36.98077593 23.80712167 37.86822598 25.84366833 38.2746582 29.41015625 C38.3028631 32.2738762 38.32175025 35.1361215 38.3125 38 C38.32861328 38.99773437 38.34472656 39.99546875 38.36132812 41.0234375 C38.36197266 41.98507813 38.36261719 42.94671875 38.36328125 43.9375 C38.36626221 44.81277344 38.36924316 45.68804687 38.37231445 46.58984375 C37.92957301 49.45590508 36.89127539 50.84461492 35 53 C34.938125 52.21625 34.87625 51.4325 34.8125 50.625 C34.544375 49.75875 34.27625 48.8925 34 48 C32.34697222 47.30019904 30.67741918 46.63912997 29 46 C27.32447913 44.89803303 25.67870448 43.74975922 24.0625 42.5625 C20.47504863 39.99625529 17.00275028 37.87362779 13 36 C0.13104591 29.32824289 -12.01713488 21.12474567 -24 13 C-22.50881392 8.52644177 -19.25900443 7.23913735 -15.375 4.8125 C-14.32505859 4.11737305 -14.32505859 4.11737305 -13.25390625 3.40820312 C-8.7162728 0.55008335 -5.49963558 -0.90301884 0 0 Z " fill="#5894A1" transform="translate(153,210)"/>
<path d="M0 0 C-0.61449997 3.33822957 -1.34560829 6.02209492 -3 9 C-5.44966059 8.41208146 -7.79254042 7.73581986 -10.1875 6.9375 C-14.49949459 5.87717346 -18.57952524 5.41745681 -23 6 C-23.99 6.66 -24.98 7.32 -26 8 C-25.67 8.99 -25.34 9.98 -25 11 C-23.78183594 11.17015625 -22.56367188 11.3403125 -21.30859375 11.515625 C-19.68478283 11.75966595 -18.06109095 12.00449989 -16.4375 12.25 C-15.23770508 12.41435547 -15.23770508 12.41435547 -14.01367188 12.58203125 C-8.51177375 13.43538688 -4.61197777 14.84224945 0 18 C2.9744773 22.46171596 2.73604659 26.77100233 2 32 C-1.00689592 36.37366679 -5.00781446 38.43504012 -10 40 C-12.95015235 40.42887526 -15.83479934 40.47569993 -18.8125 40.4375 C-19.99682617 40.43157837 -19.99682617 40.43157837 -21.20507812 40.42553711 C-27.42584631 40.27282926 -32.52123126 39.04511923 -38 36 C-38.66 35.67 -39.32 35.34 -40 35 C-38.94124926 31.59687262 -37.99097846 28.98646769 -36 26 C-34.37433394 26.47690204 -32.74948689 26.95659666 -31.125 27.4375 C-30.22007812 27.70433594 -29.31515625 27.97117188 -28.3828125 28.24609375 C-26 29 -26 29 -24 30 C-22.37731009 30.09611752 -20.75052694 30.12982352 -19.125 30.125 C-18.26132813 30.12757813 -17.39765625 30.13015625 -16.5078125 30.1328125 C-14.19334029 30.01023921 -12.21710884 29.64966445 -10 29 C-10.33 27.68 -10.66 26.36 -11 25 C-12.134375 24.82984375 -13.26875 24.6596875 -14.4375 24.484375 C-32.90997537 21.57284097 -32.90997537 21.57284097 -38 15.6875 C-39.6453654 11.26558048 -39.48006763 7.44020288 -38 3 C-37.34 3 -36.68 3 -36 3 C-36 2.34 -36 1.68 -36 1 C-35.34 1 -34.68 1 -34 1 C-34 0.34 -34 -0.32 -34 -1 C-23.38163064 -6.30918468 -10.35480675 -5.57566517 0 0 Z " fill="#2A3567" transform="translate(256,204)"/>
<path d="M0 0 C2.8203125 -0.29296875 2.8203125 -0.29296875 6.125 -0.1875 C7.76855469 -0.14689453 7.76855469 -0.14689453 9.4453125 -0.10546875 C10.28835938 -0.07066406 11.13140625 -0.03585938 12 0 C12.495 1.98 12.495 1.98 13 4 C13.66 4 14.32 4 15 4 C15 5.32 15 6.64 15 8 C15.66 8 16.32 8 17 8 C18.73101137 11.60328343 20.45945825 15.20779159 22.1875 18.8125 C22.67025391 19.81732422 23.15300781 20.82214844 23.65039062 21.85742188 C26.84974372 28.53526626 29.96307607 35.24674149 33 42 C28.89290442 43.36903186 25.26376513 44.00504649 21 43 C19.81713867 41.21264648 19.81713867 41.21264648 18.85546875 38.99609375 C17.0230364 35.77347377 17.0230364 35.77347377 13.73046875 34.34204102 C11.01168298 34.21280656 8.40178771 34.30050465 5.6875 34.5 C4.75615234 34.53609375 3.82480469 34.5721875 2.86523438 34.609375 C0.57258193 34.70343254 -1.71157091 34.83460971 -4 35 C-4.99 37.31 -5.98 39.62 -7 42 C-11.29 42 -15.58 42 -20 42 C-18.68543767 36.84133874 -16.83249186 32.29159804 -14.375 27.5625 C-13.66120312 26.16419275 -12.94766962 24.76575102 -12.234375 23.3671875 C-11.86763672 22.65272461 -11.50089844 21.93826172 -11.12304688 21.20214844 C-9.98875753 18.97795498 -8.87400255 16.74502096 -7.765625 14.5078125 C-7.40678223 13.78392334 -7.04793945 13.06003418 -6.67822266 12.31420898 C-5.98951065 10.92353437 -5.30164956 9.53243795 -4.61474609 8.14086914 C-3.20144619 5.30084045 -1.76272599 2.64408899 0 0 Z M6 14 C4.35 17.3 2.7 20.6 1 24 C4.3 24 7.6 24 11 24 C9.77263971 19.84585747 8.672336 17.56311466 6 14 Z " fill="#233063" transform="translate(379,201)"/>
<path d="M0 0 C3.96 0 7.92 0 12 0 C12.68264247 7.76505813 13.08335875 15.33251995 12.83984375 23.125 C13.01043987 26.18740832 13.6314065 28.26764902 15 31 C18.17896532 33.38422399 21.12877722 33.23701364 25 33 C26.67453799 32.708776 28.34550895 32.38929201 30 32 C31.0317812 28.55951096 31.18294708 25.32032464 31.28125 21.73828125 C31.31863281 20.53751953 31.35601562 19.33675781 31.39453125 18.09960938 C31.46516986 15.5631601 31.53547936 13.02670164 31.60546875 10.49023438 C31.64285156 9.29333984 31.68023437 8.09644531 31.71875 6.86328125 C31.76418945 5.21259644 31.76418945 5.21259644 31.81054688 3.52856445 C32 1 32 1 33 0 C34.85287502 -0.07226502 36.70833878 -0.0838122 38.5625 -0.0625 C39.57441406 -0.05347656 40.58632813 -0.04445312 41.62890625 -0.03515625 C42.41136719 -0.02355469 43.19382812 -0.01195312 44 0 C44.09932276 4.44736742 44.17168003 8.89413713 44.21972656 13.34228516 C44.23976791 14.85346736 44.26700905 16.36457272 44.30175781 17.87548828 C44.35061109 20.05520643 44.37304224 22.23389431 44.390625 24.4140625 C44.41157227 25.7232666 44.43251953 27.0324707 44.45410156 28.38134766 C43.92187149 32.62259183 42.67023121 34.70350011 40 38 C32.07508406 44.10878937 23.60222273 43.69539907 14 43 C9.15419747 41.6406397 5.07263181 39.01805698 2 35 C0.20601387 30.55403438 -0.23758119 26.84667464 -0.1953125 22.0703125 C-0.18886719 20.78125 -0.18242187 19.4921875 -0.17578125 18.1640625 C-0.15907463 16.81770558 -0.14214479 15.47135141 -0.125 14.125 C-0.11495664 12.75521483 -0.10583317 11.38542258 -0.09765625 10.015625 C-0.07414412 6.67690244 -0.0412793 3.33854239 0 0 Z " fill="#2E3664" transform="translate(264,201)"/>
<path d="M0 0 C13.2 0 26.4 0 40 0 C40 9 40 9 38.19580078 11.81005859 C37.37063965 12.58172363 36.54547852 13.35338867 35.6953125 14.1484375 C34.80199219 15.00824219 33.90867187 15.86804688 32.98828125 16.75390625 C32.04339844 17.61886719 31.09851563 18.48382813 30.125 19.375 C28.27192378 21.13121667 26.42029276 22.88895987 24.5703125 24.6484375 C23.32918701 25.79578369 23.32918701 25.79578369 22.06298828 26.96630859 C19.83986908 29.02014599 19.83986908 29.02014599 18 32 C18.99181274 32.03758423 18.99181274 32.03758423 20.00366211 32.07592773 C22.98182305 32.19153102 25.9596392 32.31441754 28.9375 32.4375 C29.97841797 32.47681641 31.01933594 32.51613281 32.09179688 32.55664062 C33.08115234 32.59853516 34.07050781 32.64042969 35.08984375 32.68359375 C36.46450806 32.73858032 36.46450806 32.73858032 37.86694336 32.79467773 C40 33 40 33 41 34 C41.125 37.5 41.125 37.5 41 41 C37.79079971 44.20920029 28.3324867 43.07730247 23.9375 43.125 C15.94986467 43.0551373 7.97062507 42.49103961 0 42 C-0.125 34.25 -0.125 34.25 1 32 C1.66 32 2.32 32 3 32 C3.37390869 31.13713379 3.37390869 31.13713379 3.75537109 30.25683594 C5.17873923 27.67589928 6.81548786 25.95787763 8.9140625 23.890625 C9.67460937 23.13652344 10.43515625 22.38242188 11.21875 21.60546875 C12.0128125 20.82816406 12.806875 20.05085938 13.625 19.25 C14.42679687 18.45722656 15.22859375 17.66445312 16.0546875 16.84765625 C18.03198406 14.89389893 20.01540737 12.94634567 22 11 C14.74 10.67 7.48 10.34 0 10 C0 6.7 0 3.4 0 0 Z " fill="#2E3A6B" transform="translate(316,201)"/>
<path d="M0 0 C5.36275871 0.0712659 10.77554803 0.27554803 14.8125 4.3125 C14.85596799 6.31202758 14.852492 8.31289988 14.8125 10.3125 C14.8125 11.3025 14.8125 12.2925 14.8125 13.3125 C15.1425 13.6425 15.4725 13.9725 15.8125 14.3125 C15.6875 17.6875 15.6875 17.6875 14.8125 21.3125 C10.544001 24.94985907 6.37714484 24.70589683 1.0625 24.5625 C0.28261719 24.55734375 -0.49726563 24.5521875 -1.30078125 24.546875 C-7.03287588 24.46712412 -7.03287588 24.46712412 -8.1875 23.3125 C-8.43848924 19.84041193 -8.37272096 16.3550938 -8.375 12.875 C-8.38724609 11.89466797 -8.39949219 10.91433594 -8.41210938 9.90429688 C-8.41500977 8.49954102 -8.41500977 8.49954102 -8.41796875 7.06640625 C-8.42207764 6.20345947 -8.42618652 5.3405127 -8.43041992 4.45141602 C-7.85932195 -0.57711595 -4.16228801 0.01436923 0 0 Z M-1.1875 6.3125 C-1.1875 7.3025 -1.1875 8.2925 -1.1875 9.3125 C3.34390653 10.24630961 3.34390653 10.24630961 7.8125 9.3125 C7.4825 8.3225 7.1525 7.3325 6.8125 6.3125 C4.1725 6.3125 1.5325 6.3125 -1.1875 6.3125 Z M-1.1875 14.3125 C-1.1875 15.9625 -1.1875 17.6125 -1.1875 19.3125 C0.09125 19.333125 1.37 19.35375 2.6875 19.375 C3.40679687 19.38660156 4.12609375 19.39820313 4.8671875 19.41015625 C6.89435404 19.43899242 6.89435404 19.43899242 8.8125 18.3125 C8.4825 16.9925 8.1525 15.6725 7.8125 14.3125 C4.8425 14.3125 1.8725 14.3125 -1.1875 14.3125 Z " fill="#739CA2" transform="translate(288.1875,252.6875)"/>
<path d="M0 0 C0.94746094 -0.01417969 1.89492188 -0.02835938 2.87109375 -0.04296875 C5.60751644 0.19135482 7.22678123 0.79048617 9.5625 2.1875 C9.2325 3.8375 8.9025 5.4875 8.5625 7.1875 C4.6025 6.8575 0.6425 6.5275 -3.4375 6.1875 C-3.4375 6.8475 -3.4375 7.5075 -3.4375 8.1875 C-2.59445312 8.39246094 -1.75140625 8.59742188 -0.8828125 8.80859375 C0.21289062 9.07800781 1.30859375 9.34742188 2.4375 9.625 C3.52804687 9.89183594 4.61859375 10.15867187 5.7421875 10.43359375 C8.5625 11.1875 8.5625 11.1875 10.5625 12.1875 C10.93044425 19.6690331 10.93044425 19.6690331 9.1875 22.125 C5.61341692 24.46190047 2.95165259 24.35283704 -1.3125 24.375 C-3.16488281 24.39626953 -3.16488281 24.39626953 -5.0546875 24.41796875 C-8.17836712 24.20515455 -9.83811596 23.83987226 -12.4375 22.1875 C-12.1075 20.5375 -11.7775 18.8875 -11.4375 17.1875 C-10.6125 17.3525 -9.7875 17.5175 -8.9375 17.6875 C-5.02477683 18.24646045 -1.38566827 18.25557187 2.5625 18.1875 C2.5625 17.5275 2.5625 16.8675 2.5625 16.1875 C1.88703125 16.08953125 1.2115625 15.9915625 0.515625 15.890625 C-6.69618726 14.68170849 -6.69618726 14.68170849 -10.0625 12.4375 C-11.88769387 9.45081912 -11.94990422 7.62792834 -11.4375 4.1875 C-8.49829729 0.12860102 -4.71228854 0.03196939 0 0 Z " fill="#6F979C" transform="translate(323.4375,252.8125)"/>
<path d="M0 0 C3.63 0 7.26 0 11 0 C11.09889302 4.50229474 11.17147709 9.00395727 11.21972656 13.50708008 C11.2398398 15.03876762 11.2671345 16.57037839 11.30175781 18.10180664 C11.35029315 20.30374073 11.37296996 22.50465982 11.390625 24.70703125 C11.41127014 25.39150833 11.43191528 26.07598541 11.45318604 26.78120422 C11.45410156 28.72192383 11.45410156 28.72192383 11 32 C8.97558594 33.95581055 8.97558594 33.95581055 7 35 C6.34 34.67 5.68 34.34 5 34 C4.67 34.66 4.34 35.32 4 36 C3.34 35.67 2.68 35.34 2 35 C2.04125 33.88625 2.0825 32.7725 2.125 31.625 C2.41121859 27.95633975 2.41121859 27.95633975 0 26 C-0.22705078 23.38623047 -0.22705078 23.38623047 -0.1953125 20.1171875 C-0.18886719 18.95058594 -0.18242187 17.78398437 -0.17578125 16.58203125 C-0.15902344 15.35871094 -0.14226562 14.13539063 -0.125 12.875 C-0.11597656 11.64394531 -0.10695313 10.41289062 -0.09765625 9.14453125 C-0.07402548 6.09616185 -0.04108054 3.04817618 0 0 Z " fill="#212D60" transform="translate(297,201)"/>
<path d="M0 0 C4.19791357 1.65949731 5.36939698 5.03874622 7.35546875 8.9296875 C8.12956613 10.38575827 8.90428279 11.84150001 9.6796875 13.296875 C10.01444092 13.9451123 10.34919434 14.59334961 10.6940918 15.26123047 C11.76605694 17.2997673 11.76605694 17.2997673 13.66796875 20.0546875 C13.29296875 22.2421875 13.29296875 22.2421875 12.66796875 24.0546875 C11.01796875 24.0546875 9.36796875 24.0546875 7.66796875 24.0546875 C7.00796875 22.4046875 6.34796875 20.7546875 5.66796875 19.0546875 C3.72960909 19.11479168 1.79212384 19.20360467 -0.14453125 19.3046875 C-1.76294922 19.37429688 -1.76294922 19.37429688 -3.4140625 19.4453125 C-6.44522272 19.7660792 -6.44522272 19.7660792 -8.05078125 22.0859375 C-8.47359375 22.735625 -8.89640625 23.3853125 -9.33203125 24.0546875 C-12.01953125 24.3046875 -12.01953125 24.3046875 -14.33203125 24.0546875 C-15.33203125 21.0546875 -15.33203125 21.0546875 -14.4675293 18.89404297 C-14.01418213 18.07822754 -13.56083496 17.26241211 -13.09375 16.421875 C-12.60326172 15.53371094 -12.11277344 14.64554687 -11.60742188 13.73046875 C-11.08341797 12.80621094 -10.55941406 11.88195312 -10.01953125 10.9296875 C-9.50712891 9.99769531 -8.99472656 9.06570313 -8.46679688 8.10546875 C-3.99441803 0.09367144 -3.99441803 0.09367144 0 0 Z M-1.33203125 9.0546875 C-1.99203125 10.3746875 -2.65203125 11.6946875 -3.33203125 13.0546875 C-1.68203125 13.0546875 -0.03203125 13.0546875 1.66796875 13.0546875 C1.00796875 11.7346875 0.34796875 10.4146875 -0.33203125 9.0546875 C-0.66203125 9.0546875 -0.99203125 9.0546875 -1.33203125 9.0546875 Z " fill="#7FA5AB" transform="translate(259.33203125,252.9453125)"/>
<path d="M0 0 C0.5156159 2.0624636 1.0155553 4.09073927 1.375 6.1875 C1.58125 6.785625 1.7875 7.38375 2 8 C2.99 8.33 3.98 8.66 5 9 C5 9.66 5 10.32 5 11 C8.96 11 12.92 11 17 11 C17 11.33 17 11.66 17 12 C15.35 12.33 13.7 12.66 12 13 C11.67 14.32 11.34 15.64 11 17 C13.97 17.33 16.94 17.66 20 18 C20 18.33 20 18.66 20 19 C19.39003174 18.99363525 18.78006348 18.98727051 18.15161133 18.98071289 C15.37067974 18.97199358 12.59304684 19.01673721 9.8125 19.0625 C8.37293945 19.04606445 8.37293945 19.04606445 6.90429688 19.02929688 C1.62364979 19.05202328 1.62364979 19.05202328 -2.79150391 21.58544922 C-5.09261872 24.51219731 -5.09261872 24.51219731 -6 28 C-8.97 28 -11.94 28 -15 28 C-13.39636576 20.94400933 -10.67820625 11.33319053 -4.3828125 7.33984375 C-3.20332031 6.67662109 -3.20332031 6.67662109 -2 6 C-0.64019119 2.92438754 -0.64019119 2.92438754 0 0 Z " fill="#2C376B" transform="translate(374,215)"/>
<path d="M0 0 C0.33 0 0.66 0 1 0 C1.01981934 0.73637695 1.03963867 1.47275391 1.06005859 2.23144531 C1.15537828 5.57132056 1.26502996 8.91057639 1.375 12.25 C1.4059375 13.40886719 1.436875 14.56773437 1.46875 15.76171875 C1.50742187 16.87675781 1.54609375 17.99179688 1.5859375 19.140625 C1.63306885 20.68024902 1.63306885 20.68024902 1.68115234 22.25097656 C1.99970478 24.9974547 2.6445151 26.62610501 4 29 C4.36784131 30.3242287 4.71202981 31.65613912 5 33 C6.65 33 8.3 33 10 33 C8.49235345 37.22141034 5.78707131 38.80349864 2 41 C-1.89842534 42.38650693 -5.97581729 42.18382162 -10.0625 42.1875 C-10.78244141 42.19974609 -11.50238281 42.21199219 -12.24414062 42.22460938 C-16.0426247 42.23519011 -17.76366518 42.15755655 -21 40 C-19.35 39.01 -17.7 38.02 -16 37 C-16.495 35.515 -16.495 35.515 -17 34 C-19.50447516 32.78130071 -19.50447516 32.78130071 -22 32 C-21.01 28.535 -21.01 28.535 -20 25 C-19.773125 25.598125 -19.54625 26.19625 -19.3125 26.8125 C-17.59193332 29.68011113 -16.03468112 30.62059949 -13 32 C-9.15245554 32.32062871 -5.74752926 31.88177159 -2 31 C-0.96957053 27.55301173 -0.80205297 24.29074718 -0.68359375 20.703125 C-0.64169922 19.49785156 -0.59980469 18.29257813 -0.55664062 17.05078125 C-0.51732422 15.79652344 -0.47800781 14.54226562 -0.4375 13.25 C-0.37272461 11.34541016 -0.37272461 11.34541016 -0.30664062 9.40234375 C-0.20060278 6.26833635 -0.09853942 3.13425067 0 0 Z " fill="#353F69" transform="translate(296,202)"/>
<path d="M0 0 C3.96 0 7.92 0 12 0 C12.33 1.32 12.66 2.64 13 4 C13.66 4 14.32 4 15 4 C15 5.32 15 6.64 15 8 C15.66 8 16.32 8 17 8 C16.67 8.66 16.34 9.32 16 10 C15.01 9.34 14.02 8.68 13 8 C13.33 7.01 13.66 6.02 14 5 C11.35261084 3.5393715 10.10551666 3 7 3 C7 3.99 7 4.98 7 6 C6.34 6 5.68 6 5 6 C4.67 7.32 4.34 8.64 4 10 C4.804375 10.350625 5.60875 10.70125 6.4375 11.0625 C9 13 9 13 9.8125 16.6875 C9.874375 17.780625 9.93625 18.87375 10 20 C8.68 18.35 7.36 16.7 6 15 C4.68 17.64 3.36 20.28 2 23 C5.3 23 8.6 23 12 23 C12 23.66 12 24.32 12 25 C8.04 25 4.08 25 0 25 C0 24.34 0 23.68 0 23 C-1.32 22.67 -2.64 22.34 -4 22 C-4.33 20.35 -4.66 18.7 -5 17 C-5.433125 17.804375 -5.86625 18.60875 -6.3125 19.4375 C-8 22 -8 22 -11 23 C-9.44347945 17.6462535 -7.0182491 12.99849053 -4.375 8.125 C-3.95476562 7.34125 -3.53453125 6.5575 -3.1015625 5.75 C-2.0718978 3.83107943 -1.03652433 1.91522397 0 0 Z " fill="#2E386A" transform="translate(379,201)"/>
<path d="M0 0 C2.97 0.495 2.97 0.495 6 1 C6.33 6.61 6.66 12.22 7 18 C10.75976562 17.95117188 10.75976562 17.95117188 14.51953125 17.90234375 C17 18 17 18 20 19 C20 20.65 20 22.3 20 24 C13.4 24 6.8 24 0 24 C0 16.08 0 8.16 0 0 Z " fill="#63888E" transform="translate(218,253)"/>
<path d="M0 0 C2.1875 1.25 2.1875 1.25 4 3 C4 3.99 4 4.98 4 6 C4.99 6.66 5.98 7.32 7 8 C7.6875 11.625 7.6875 11.625 8 15 C8.66 15 9.32 15 10 15 C10.33 18.3 10.66 21.6 11 25 C7.75 25.3125 7.75 25.3125 4 25 C0.59826083 22.14989421 -0.19042115 19.52330807 -0.9375 15.3125 C-1.30149619 13.00164525 -1.30149619 13.00164525 -2 11 C-4.47014472 9.32386813 -4.47014472 9.32386813 -7 9 C-6.34 7.35 -5.68 5.7 -5 4 C-4.34 4 -3.68 4 -3 4 C-3 3.01 -3 2.02 -3 1 C-2.01 0.67 -1.02 0.34 0 0 Z " fill="#202B62" transform="translate(389,203)"/>
<path d="M0 0 C12.54 0 25.08 0 38 0 C38 0.66 38 1.32 38 2 C37.27820557 2.02505615 36.55641113 2.0501123 35.81274414 2.07592773 C32.562465 2.19151302 29.31250312 2.31440774 26.0625 2.4375 C24.92619141 2.47681641 23.78988281 2.51613281 22.61914062 2.55664062 C20.99975586 2.61948242 20.99975586 2.61948242 19.34765625 2.68359375 C18.34742432 2.72025146 17.34719238 2.75690918 16.31665039 2.79467773 C14.03930812 2.74671841 14.03930812 2.74671841 13 4 C13.804375 4.268125 14.60875 4.53625 15.4375 4.8125 C16.283125 5.204375 17.12875 5.59625 18 6 C18.33 6.99 18.66 7.98 19 9 C19.66 9.33 20.32 9.66 21 10 C20.34 10 19.68 10 19 10 C19 10.66 19 11.32 19 12 C19.66 12 20.32 12 21 12 C20.67 12.66 20.34 13.32 20 14 C17.79007241 12.7527532 15.58206337 11.50229753 13.375 10.25 C12.75753906 9.90195312 12.14007813 9.55390625 11.50390625 9.1953125 C7.55377063 6.94997225 3.66844968 4.68643392 0 2 C0 1.34 0 0.68 0 0 Z " fill="#55898A" transform="translate(91,267)"/>
<path d="M0 0 C1.77503906 0.03480469 1.77503906 0.03480469 3.5859375 0.0703125 C5.36871094 0.09738281 5.36871094 0.09738281 7.1875 0.125 C8.10273438 0.14820313 9.01796875 0.17140625 9.9609375 0.1953125 C9.9609375 0.5253125 9.9609375 0.8553125 9.9609375 1.1953125 C8.754375 1.3809375 8.754375 1.3809375 7.5234375 1.5703125 C6.6778125 1.7765625 5.8321875 1.9828125 4.9609375 2.1953125 C4.6309375 2.8553125 4.3009375 3.5153125 3.9609375 4.1953125 C4.8890625 4.1953125 5.8171875 4.1953125 6.7734375 4.1953125 C8.8359375 4.1953125 10.8984375 4.1953125 12.9609375 4.1953125 C12.6309375 5.8453125 12.3009375 7.4953125 11.9609375 9.1953125 C11.3009375 8.5353125 10.6409375 7.8753125 9.9609375 7.1953125 C7.30556378 6.63011247 4.66949037 6.45743052 1.9609375 6.1953125 C1.9609375 7.1853125 1.9609375 8.1753125 1.9609375 9.1953125 C3.2809375 9.5253125 4.6009375 9.8553125 5.9609375 10.1953125 C3.9809375 10.1953125 2.0009375 10.1953125 -0.0390625 10.1953125 C0.2909375 8.5453125 0.6209375 6.8953125 0.9609375 5.1953125 C-0.3590625 4.8653125 -1.6790625 4.5353125 -3.0390625 4.1953125 C-3.0390625 10.1353125 -3.0390625 16.0753125 -3.0390625 22.1953125 C1.9109375 21.8653125 6.8609375 21.5353125 11.9609375 21.1953125 C12.2909375 20.2053125 12.6209375 19.2153125 12.9609375 18.1953125 C15.0234375 17.5078125 15.0234375 17.5078125 16.9609375 17.1953125 C17.2909375 18.5153125 17.6209375 19.8353125 17.9609375 21.1953125 C13.41496869 24.65024879 9.67235301 24.59266941 4.2109375 24.4453125 C3.43105469 24.44015625 2.65117187 24.435 1.84765625 24.4296875 C-3.88443838 24.34993662 -3.88443838 24.34993662 -5.0390625 23.1953125 C-5.29005174 19.72322443 -5.22428346 16.2379063 -5.2265625 12.7578125 C-5.23880859 11.77748047 -5.25105469 10.79714844 -5.26367188 9.78710938 C-5.26657227 8.38235352 -5.26657227 8.38235352 -5.26953125 6.94921875 C-5.27364014 6.08627197 -5.27774902 5.2233252 -5.28198242 4.33422852 C-4.86624123 0.67361692 -3.52120436 0.22629848 0 0 Z " fill="#77969D" transform="translate(285.0390625,252.8046875)"/>
<path d="M0 0 C0.94746094 -0.01417969 1.89492188 -0.02835938 2.87109375 -0.04296875 C5.60751644 0.19135482 7.22678123 0.79048617 9.5625 2.1875 C9.2325 3.8375 8.9025 5.4875 8.5625 7.1875 C4.6025 6.8575 0.6425 6.5275 -3.4375 6.1875 C-3.4375 6.8475 -3.4375 7.5075 -3.4375 8.1875 C-1.7875 8.5175 -0.1375 8.8475 1.5625 9.1875 C1.5625 9.5175 1.5625 9.8475 1.5625 10.1875 C-0.4175 10.1875 -2.3975 10.1875 -4.4375 10.1875 C-4.4375 11.5075 -4.4375 12.8275 -4.4375 14.1875 C-6.70779534 13.79606977 -8.27158198 13.30008722 -10.1875 12 C-12.04298083 9.3095528 -11.83581203 7.37399624 -11.4375 4.1875 C-8.49829729 0.12860102 -4.71228854 0.03196939 0 0 Z " fill="#7DA2A8" transform="translate(323.4375,252.8125)"/>
<path d="M0 0 C-0.61449997 3.33822957 -1.34560829 6.02209492 -3 9 C-8.77840229 7.63278874 -14.46002129 5.97248137 -19 2 C-16 0 -16 0 -13 0 C-13 -0.66 -13 -1.32 -13 -2 C-14.60407328 -2.02708567 -16.2082785 -2.04643483 -17.8125 -2.0625 C-18.70582031 -2.07410156 -19.59914062 -2.08570313 -20.51953125 -2.09765625 C-23.13413791 -2.11009967 -23.13413791 -2.11009967 -26 -1 C-28.1875 -1.9375 -28.1875 -1.9375 -30 -3 C-20.30103643 -6.0589039 -8.8198684 -4.74915991 0 0 Z " fill="#3B4672" transform="translate(256,204)"/>
<path d="M0 0 C0.99 0.66 1.98 1.32 3 2 C2.67 3.32 2.34 4.64 2 6 C4.97 6.495 4.97 6.495 8 7 C8.33 6.34 8.66 5.68 9 5 C8.67 6.65 8.34 8.3 8 10 C8.66 10.33 9.32 10.66 10 11 C9.24074219 11.09796875 8.48148437 11.1959375 7.69921875 11.296875 C6.70535156 11.44640625 5.71148437 11.5959375 4.6875 11.75 C3.70136719 11.88921875 2.71523438 12.0284375 1.69921875 12.171875 C-1.51211337 13.15711727 -2.16438443 14.29028178 -4 17 C-6.6875 17.25 -6.6875 17.25 -9 17 C-10 14 -10 14 -8.671875 10.8984375 C-8.04189186 9.71821593 -7.40079314 8.54387552 -6.75 7.375 C-6.43675781 6.776875 -6.12351563 6.17875 -5.80078125 5.5625 C-3.38262529 1.12754176 -3.38262529 1.12754176 0 0 Z " fill="#5A8A91" transform="translate(254,260)"/>
<path d="M0 0 C1.62566606 0.47690204 3.25051311 0.95659666 4.875 1.4375 C5.77992188 1.70433594 6.68484375 1.97117188 7.6171875 2.24609375 C10 3 10 3 12 4 C13.62268991 4.09611752 15.24947306 4.12982352 16.875 4.125 C17.73867187 4.12757813 18.60234375 4.13015625 19.4921875 4.1328125 C21.80665971 4.01023921 23.78289116 3.64966445 26 3 C26 3.99 26 4.98 26 6 C21.39645297 6.84802182 16.8352888 7.28900216 12.171875 7.62109375 C9.79543365 7.82119378 9.79543365 7.82119378 8 10 C5.94140625 10.484375 5.94140625 10.484375 3.5625 10.75 C2.78003906 10.84796875 1.99757812 10.9459375 1.19140625 11.046875 C-1 11 -1 11 -4 9 C-2.94124926 5.59687262 -1.99097846 2.98646769 0 0 Z " fill="#202B60" transform="translate(220,230)"/>
<path d="M0 0 C0.33 0 0.66 0 1 0 C1.01981934 0.73637695 1.03963867 1.47275391 1.06005859 2.23144531 C1.15537828 5.57132056 1.26502996 8.91057639 1.375 12.25 C1.4059375 13.40886719 1.436875 14.56773437 1.46875 15.76171875 C1.50742187 16.87675781 1.54609375 17.99179688 1.5859375 19.140625 C1.6173584 20.16704102 1.6487793 21.19345703 1.68115234 22.25097656 C1.99970478 24.9974547 2.6445151 26.62610501 4 29 C4.36784131 30.3242287 4.71202981 31.65613912 5 33 C6.65 33 8.3 33 10 33 C8.49776416 37.20626034 5.71449966 38.73900021 2 41 C0 40 0 40 -2 37 C-2.99 36.67 -3.98 36.34 -5 36 C-5 35.01 -5 34.02 -5 33 C-5.66 32.67 -6.32 32.34 -7 32 C-5.35 31.67 -3.7 31.34 -2 31 C-0.96957053 27.55301173 -0.80205297 24.29074718 -0.68359375 20.703125 C-0.64169922 19.49785156 -0.59980469 18.29257813 -0.55664062 17.05078125 C-0.51732422 15.79652344 -0.47800781 14.54226562 -0.4375 13.25 C-0.37272461 11.34541016 -0.37272461 11.34541016 -0.30664062 9.40234375 C-0.20060278 6.26833635 -0.09853942 3.13425067 0 0 Z " fill="#65799C" transform="translate(296,202)"/>
<path d="M0 0 C1.41823316 0.08006155 2.83603027 0.17654137 4.25 0.3125 C3.27180976 1.62572788 2.2924189 2.93806152 1.3125 4.25 C0.49458984 5.34634766 0.49458984 5.34634766 -0.33984375 6.46484375 C-1.75 8.3125 -1.75 8.3125 -2.75 9.3125 C-2.0887915 9.33755615 -1.42758301 9.3626123 -0.74633789 9.38842773 C2.23182305 9.50403102 5.2096392 9.62691754 8.1875 9.75 C9.22841797 9.78931641 10.26933594 9.82863281 11.34179688 9.86914062 C12.33115234 9.91103516 13.32050781 9.95292969 14.33984375 9.99609375 C15.71450806 10.05108032 15.71450806 10.05108032 17.11694336 10.10717773 C19.25 10.3125 19.25 10.3125 20.25 11.3125 C20.29092937 13.64547433 20.29241723 15.97955225 20.25 18.3125 C19.59 18.3125 18.93 18.3125 18.25 18.3125 C18.25 16.6625 18.25 15.0125 18.25 13.3125 C17.46753906 13.32410156 16.68507813 13.33570313 15.87890625 13.34765625 C14.86699219 13.35667969 13.85507812 13.36570313 12.8125 13.375 C11.80316406 13.38660156 10.79382813 13.39820313 9.75390625 13.41015625 C7.25 13.3125 7.25 13.3125 6.25 12.3125 C4.23405418 12.07822222 2.211526 11.89913876 0.1875 11.75 C-0.91722656 11.66621094 -2.02195312 11.58242187 -3.16015625 11.49609375 C-4.44212891 11.40521484 -4.44212891 11.40521484 -5.75 11.3125 C-5.75 9.6625 -5.75 8.0125 -5.75 6.3125 C-6.74 5.9825 -7.73 5.6525 -8.75 5.3125 C-6.33348981 1.10987358 -4.73606739 -0.03729187 0 0 Z " fill="#424C77" transform="translate(336.75,223.6875)"/>
<path d="M0 0 C2.10409639 -0.02701408 4.20829178 -0.04640223 6.3125 -0.0625 C7.48425781 -0.07410156 8.65601563 -0.08570313 9.86328125 -0.09765625 C13 0 13 0 16 1 C17.3917773 1.21555251 18.78831216 1.40193746 20.1875 1.5625 C21.445625 1.706875 22.70375 1.85125 24 2 C24 3.32 24 4.64 24 6 C16.74 6 9.48 6 2 6 C2 5.34 2 4.68 2 4 C1.34 3.34 0.68 2.68 0 2 C0 1.34 0 0.68 0 0 Z " fill="#1F2C63" transform="translate(330,235)"/>
<path d="M0 0 C1.65 0 3.3 0 5 0 C5 0.66 5 1.32 5 2 C5.66 2 6.32 2 7 2 C7 2.66 7 3.32 7 4 C7.66 4.33 8.32 4.66 9 5 C9 5.99 9 6.98 9 8 C7.0085944 8.38133299 5.00720923 8.71325582 3 9 C2.67 8.67 2.34 8.34 2 8 C-0.01964199 7.92755947 -2.04167124 7.91622812 -4.0625 7.9375 C-5.16722656 7.94652344 -6.27195313 7.95554688 -7.41015625 7.96484375 C-8.26480469 7.97644531 -9.11945313 7.98804688 -10 8 C-10 6.35 -10 4.7 -10 3 C-8.68 3 -7.36 3 -6 3 C-5.67 2.67 -5.34 2.34 -5 2 C-3.33382885 1.95936168 -1.66611905 1.957279 0 2 C0 1.34 0 0.68 0 0 Z " fill="#1D295F" transform="translate(238,218)"/>
<path d="M0 0 C1.65 0.33 3.3 0.66 5 1 C3.515 2.485 3.515 2.485 2 4 C2.33 4.99 2.66 5.98 3 7 C5.50447516 8.21869929 5.50447516 8.21869929 8 9 C6.74797133 12.75608601 5.36936427 13.14684965 2 15 C1.67 15.33 1.34 15.66 1 16 C-2 17 -2 17 -3.7890625 16.328125 C-4.69785156 15.79445312 -4.69785156 15.79445312 -5.625 15.25 C-6.54152344 14.73179687 -6.54152344 14.73179687 -7.4765625 14.203125 C-9 13 -9 13 -10 10 C-8.6078125 10.0309375 -8.6078125 10.0309375 -7.1875 10.0625 C-3.97713989 10.15769604 -3.97713989 10.15769604 -1 9 C-0.67 9.33 -0.34 9.66 0 10 C0.33 9.01 0.66 8.02 1 7 C-0.32 6.67 -1.64 6.34 -3 6 C-2.34 5.67 -1.68 5.34 -1 5 C-0.34444881 2.47266765 -0.34444881 2.47266765 0 0 Z " fill="#313B6A" transform="translate(228,208)"/>
<path d="M0 0 C4.62 0 9.24 0 14 0 C13.01 0.495 13.01 0.495 12 1 C12 1.66 12 2.32 12 3 C11.34 3.66 10.68 4.32 10 5 C10.99 5.66 11.98 6.32 13 7 C9.93418931 8.0219369 7.65199926 8.1986365 4.4375 8.25 C3.46683594 8.27578125 2.49617187 8.3015625 1.49609375 8.328125 C0.67238281 8.21984375 -0.15132812 8.1115625 -1 8 C-1.66 7.01 -2.32 6.02 -3 5 C-3.99 4.67 -4.98 4.34 -6 4 C-5.67 3.01 -5.34 2.02 -5 1 C-3.35 1 -1.7 1 0 1 C0 0.67 0 0.34 0 0 Z " fill="#1F295A" transform="translate(231,201)"/>
<path d="M0 0 C6.6291777 0.23260273 10.66023196 2.15139059 16 6 C15.67 6.99 15.34 7.98 15 9 C1.47 9 -12.06 9 -26 9 C-26 8.67 -26 8.34 -26 8 C-13.79 7.67 -1.58 7.34 11 7 C10.505 6.01 10.505 6.01 10 5 C9.34 5.33 8.68 5.66 8 6 C5.3276379 6.13415472 2.67749512 6.04318541 0 6 C-0.38218767 4.34385343 -0.71395102 2.67542976 -1 1 C-0.67 0.67 -0.34 0.34 0 0 Z " fill="#727AAE" transform="translate(171,193)"/>
<path d="M0 0 C0.33 0 0.66 0 1 0 C1.495 2.97 1.495 2.97 2 6 C-11.1153445 7.42061759 -23.87518379 6.86165265 -37 6 C-37 5.01 -37 4.02 -37 3 C-24.65146452 2.7829359 -12.33201708 3.43308003 0 4 C0 2.68 0 1.36 0 0 Z " fill="#31385A" transform="translate(354,237)"/>
<path d="M0 0 C2.370604 0.9482416 3.7303402 1.57355575 5.11401367 3.76171875 C6.78775511 7.99011817 6.32700432 12.5094638 6.3125 17 C6.32861328 17.99773437 6.34472656 18.99546875 6.36132812 20.0234375 C6.36197266 20.98507813 6.36261719 21.94671875 6.36328125 22.9375 C6.36626221 23.81277344 6.36924316 24.68804687 6.37231445 25.58984375 C5.92957301 28.45590508 4.89127539 29.84461492 3 32 C1.84154017 26.33342515 1.96228689 20.93281165 2.12695312 15.18945312 C2.19158683 10.91982688 1.73722888 7.87640483 0 4 C0 2.68 0 1.36 0 0 Z " fill="#71999E" transform="translate(185,231)"/>
<path d="M0 0 C3.53586014 3.17320782 5.58578031 5.16743695 6 10 C6.66 10 7.32 10 8 10 C7.67 10.99 7.34 11.98 7 13 C4.03 13 1.06 13 -2 13 C-4 7.25 -4 7.25 -4 5 C-3.34 5 -2.68 5 -2 5 C-1.34 3.35 -0.68 1.7 0 0 Z " fill="#1D2A61" transform="translate(400,228)"/>
<path d="M0 0 C4.95 0 9.9 0 15 0 C15 0.33 15 0.66 15 1 C13.35 1.33 11.7 1.66 10 2 C9.67 3.32 9.34 4.64 9 6 C11.97 6.33 14.94 6.66 18 7 C18 7.33 18 7.66 18 8 C7.605 8.495 7.605 8.495 -3 9 C-3 8.01 -3 7.02 -3 6 C-1.68 6 -0.36 6 1 6 C0.67 4.02 0.34 2.04 0 0 Z " fill="#182455" transform="translate(376,226)"/>
<path d="M0 0 C1.32 0.33 2.64 0.66 4 1 C4 1.66 4 2.32 4 3 C4.66 3.33 5.32 3.66 6 4 C-14.79 4.495 -14.79 4.495 -36 5 C-35.67 4.34 -35.34 3.68 -35 3 C-30.70866035 2.01223482 -26.46092545 1.81958619 -22.0703125 1.68359375 C-20.78125 1.64169922 -19.4921875 1.59980469 -18.1640625 1.55664062 C-16.81771091 1.51683972 -15.47135671 1.47712727 -14.125 1.4375 C-12.75519667 1.39424817 -11.38540479 1.35063188 -10.015625 1.30664062 C-6.67717843 1.20084478 -3.338661 1.09875628 0 1 C0 0.67 0 0.34 0 0 Z " fill="#1D244D" transform="translate(178,197)"/>
<path d="M0 0 C0.33 0 0.66 0 1 0 C1 1.98 1 3.96 1 6 C1.33 5.67 1.66 5.34 2 5 C3.32 5 4.64 5 6 5 C6 5.66 6 6.32 6 7 C7.32 6.67 8.64 6.34 10 6 C9.67 6.99 9.34 7.98 9 9 C8.34 9 7.68 9 7 9 C6.566875 9.45375 6.13375 9.9075 5.6875 10.375 C2.86276518 13.09511501 0.06670692 13.9525908 -3.8125 14.125 C-4.534375 14.08375 -5.25625 14.0425 -6 14 C-6 12.68 -6 11.36 -6 10 C-3.5 7.5 -3.5 7.5 -1 5 C-0.12761142 2.32209104 -0.12761142 2.32209104 0 0 Z " fill="#1F2C61" transform="translate(247,228)"/>
<path d="M0 0 C2.29965163 1.23688835 4.58894675 2.48842071 6.875 3.75 C7.52597656 4.09804687 8.17695313 4.44609375 8.84765625 4.8046875 C12.32168779 6.73868444 14.7527268 8.10007535 16 12 C14.02 13.32 12.04 14.64 10 16 C8 13 8 13 8 11 C7.34 10.67 6.68 10.34 6 10 C6.33 9.67 6.66 9.34 7 9 C6.34 8.38125 5.68 7.7625 5 7.125 C3 5 3 5 3 3 C2.01 3 1.02 3 0 3 C0 2.01 0 1.02 0 0 Z " fill="#29325D" transform="translate(134,235)"/>
<path d="M0 0 C1.32 0.33 2.64 0.66 4 1 C3.67 2.65 3.34 4.3 3 6 C6.3 6 9.6 6 13 6 C12.34 6.66 11.68 7.32 11 8 C12.65 8 14.3 8 16 8 C16 8.99 16 9.98 16 11 C12.04 10.67 8.08 10.34 4 10 C3.67 10.99 3.34 11.98 3 13 C0.75393573 11.22555028 0.04918998 10.41647515 -0.29296875 7.51953125 C-0.25816406 6.62621094 -0.22335937 5.73289062 -0.1875 4.8125 C-0.16042969 3.91144531 -0.13335937 3.01039063 -0.10546875 2.08203125 C-0.07066406 1.39496094 -0.03585937 0.70789063 0 0 Z " fill="#598B91" transform="translate(282,257)"/>
<path d="M0 0 C0.33 0 0.66 0 1 0 C0.979375 0.78375 0.95875 1.5675 0.9375 2.375 C0.81315937 4.98114961 0.81315937 4.98114961 2 7 C1.01 7.495 1.01 7.495 0 8 C1.32 8.99 2.64 9.98 4 11 C-0.30769231 15.92307692 -0.30769231 15.92307692 -3.8125 16.3125 C-4.534375 16.209375 -5.25625 16.10625 -6 16 C-7 13 -7 13 -5.56640625 9.86328125 C-4.90864027 8.6739872 -4.24022185 7.49053629 -3.5625 6.3125 C-3.22412109 5.70599609 -2.88574219 5.09949219 -2.53710938 4.47460938 C-1.70042085 2.9779975 -0.85137169 1.48830811 0 0 Z " fill="#779DA4" transform="translate(251,261)"/>
<path d="M0 0 C2.31 0 4.62 0 7 0 C7 0.66 7 1.32 7 2 C8.65 2 10.3 2 12 2 C12.433125 2.9590625 12.433125 2.9590625 12.875 3.9375 C13.82823451 6.15206079 13.82823451 6.15206079 16 7 C15.34 7 14.68 7 14 7 C14 7.66 14 8.32 14 9 C14.66 9 15.32 9 16 9 C15.67 9.66 15.34 10.32 15 11 C12.68085795 9.74018219 10.37016084 8.46803871 8.0625 7.1875 C7.40314453 6.83107422 6.74378906 6.47464844 6.06445312 6.10742188 C1.11328125 3.33984375 1.11328125 3.33984375 0 0 Z " fill="#609599" transform="translate(96,270)"/>
<path d="M0 0 C0.99 0.33 1.98 0.66 3 1 C2.67 2.32 2.34 3.64 2 5 C4.31 5.33 6.62 5.66 9 6 C9 6.66 9 7.32 9 8 C10.093125 7.79375 11.18625 7.5875 12.3125 7.375 C16 7 16 7 19 9 C14.79018748 11.10490626 9.56961004 10.5355902 5 10 C1.99956609 8.69586003 -0.4793777 7.0758066 -3 5 C-2.34 4.67 -1.68 4.34 -1 4 C-0.34786708 1.97536745 -0.34786708 1.97536745 0 0 Z " fill="#79A1A6" transform="translate(125,283)"/>
<path d="M0 0 C0.66 0 1.32 0 2 0 C4.31 4.95 6.62 9.9 9 15 C6.11788698 15.96070434 4.30149956 16.10581883 1.3125 16.0625 C0.10013672 16.04896484 0.10013672 16.04896484 -1.13671875 16.03515625 C-1.75160156 16.02355469 -2.36648438 16.01195312 -3 16 C-3.33 15.01 -3.66 14.02 -4 13 C-0.92382812 12.70703125 -0.92382812 12.70703125 2.15234375 12.4140625 C2.76207031 12.27742187 3.37179687 12.14078125 4 12 C4.33 11.34 4.66 10.68 5 10 C4.34 10 3.68 10 3 10 C0 3.375 0 3.375 0 0 Z " fill="#4B506C" transform="translate(403,228)"/>
<path d="M0 0 C2.97 0.495 2.97 0.495 6 1 C5.67 1.99 5.34 2.98 5 4 C4.92026524 5.33525717 4.89228662 6.67412083 4.90234375 8.01171875 C4.90556641 8.76904297 4.90878906 9.52636719 4.91210938 10.30664062 C4.92048828 11.09232422 4.92886719 11.87800781 4.9375 12.6875 C4.94201172 13.48478516 4.94652344 14.28207031 4.95117188 15.10351562 C4.9629415 17.06904257 4.98087652 19.03453085 5 21 C4.01 21 3.02 21 2 21 C0.7937748 17.38132441 0.89183082 14.07493749 0.9375 10.3125 C0.94201172 9.61060547 0.94652344 8.90871094 0.95117188 8.18554688 C0.96293073 6.45699462 0.98086546 4.72848635 1 3 C1.66 2.67 2.32 2.34 3 2 C2.01 1.34 1.02 0.68 0 0 Z " fill="#649AA1" transform="translate(218,253)"/>
<path d="M0 0 C1.79244141 0.01740234 1.79244141 0.01740234 3.62109375 0.03515625 C5.41740234 0.04869141 5.41740234 0.04869141 7.25 0.0625 C8.17683594 0.07410156 9.10367187 0.08570313 10.05859375 0.09765625 C10.05859375 0.42765625 10.05859375 0.75765625 10.05859375 1.09765625 C8.85203125 1.28328125 8.85203125 1.28328125 7.62109375 1.47265625 C6.77546875 1.67890625 5.92984375 1.88515625 5.05859375 2.09765625 C4.72859375 2.75765625 4.39859375 3.41765625 4.05859375 4.09765625 C4.98671875 4.09765625 5.91484375 4.09765625 6.87109375 4.09765625 C8.93359375 4.09765625 10.99609375 4.09765625 13.05859375 4.09765625 C12.72859375 5.74765625 12.39859375 7.39765625 12.05859375 9.09765625 C11.39859375 8.43765625 10.73859375 7.77765625 10.05859375 7.09765625 C7.40322003 6.53245622 4.76714662 6.35977427 2.05859375 6.09765625 C2.05859375 7.08765625 2.05859375 8.07765625 2.05859375 9.09765625 C3.37859375 9.42765625 4.69859375 9.75765625 6.05859375 10.09765625 C4.07859375 10.09765625 2.09859375 10.09765625 0.05859375 10.09765625 C0.38859375 8.44765625 0.71859375 6.79765625 1.05859375 5.09765625 C0.41921875 4.99453125 -0.22015625 4.89140625 -0.87890625 4.78515625 C-1.55953125 4.55828125 -2.24015625 4.33140625 -2.94140625 4.09765625 C-3.27140625 3.10765625 -3.60140625 2.11765625 -3.94140625 1.09765625 C-2.94140625 0.09765625 -2.94140625 0.09765625 0 0 Z " fill="#9BB8BD" transform="translate(284.94140625,252.90234375)"/>
<path d="M0 0 C2.92797903 1.32346696 5.6306897 2.81531128 8 5 C8 5.99 8 6.98 8 8 C3.55905233 8 2.30714155 7.18285629 -1.21875 4.875 C-3.26760963 3.70606408 -3.26760963 3.70606408 -7 4 C-7.66 3.01 -8.32 2.02 -9 1 C-5.82912985 -0.58543507 -3.52009516 -0.34065437 0 0 Z " fill="#333B68" transform="translate(147,175)"/>
<path d="M0 0 C1.66666667 0 3.33333333 0 5 0 C5 1.65 5 3.3 5 5 C7.01822917 4.90234375 9.03645833 4.8046875 11.0546875 4.70703125 C11.69664062 4.80371094 12.33859375 4.90039062 13 5 C13.99 6.485 13.99 6.485 15 8 C10.05 8 5.1 8 0 8 C0 5.36 0 2.72 0 0 Z " fill="#5E9097" transform="translate(282,267)"/>
<path d="M0 0 C-3.75 3 -3.75 3 -6 3 C-6 3.66 -6 4.32 -6 5 C-11.625 8 -11.625 8 -15 8 C-14.67 6.68 -14.34 5.36 -14 4 C-13.34 4 -12.68 4 -12 4 C-11.67 3.01 -11.34 2.02 -11 1 C-7.41738955 -1.7558542 -4.22379121 -0.81226754 0 0 Z " fill="#517B88" transform="translate(187,264)"/>
<path d="M0 0 C0.20625 0.5775 0.4125 1.155 0.625 1.75 C2.50073738 4.81938843 4.98594263 6.09314738 8 8 C9.875 9.75 9.875 9.75 11 11 C10.34 11 9.68 11 9 11 C8.67 11.66 8.34 12.32 8 13 C7.01 13 6.02 13 5 13 C5 13.66 5 14.32 5 15 C3.02 15.33 1.04 15.66 -1 16 C0.65 14.68 2.3 13.36 4 12 C3.67 11.01 3.34 10.02 3 9 C0.49552484 7.78130071 0.49552484 7.78130071 -2 7 C-1.34 4.69 -0.68 2.38 0 0 Z " fill="#333F6B" transform="translate(276,227)"/>
<path d="M0 0 C0.66 0.99 1.32 1.98 2 3 C0.71034824 4.37562854 -0.62689293 5.70766393 -2 7 C-2.66 7 -3.32 7 -4 7 C-4.1546875 7.9590625 -4.1546875 7.9590625 -4.3125 8.9375 C-4.539375 9.618125 -4.76625 10.29875 -5 11 C-5.99 11.33 -6.98 11.66 -8 12 C-8.99 13.485 -8.99 13.485 -10 15 C-11.32 14.67 -12.64 14.34 -14 14 C-9.38 9.38 -4.76 4.76 0 0 Z " fill="#4C527B" transform="translate(337,213)"/>
<path d="M0 0 C5.28 0 10.56 0 16 0 C16.33 2.64 16.66 5.28 17 8 C16.01 8 15.02 8 14 8 C13.67 6.68 13.34 5.36 13 4 C11.68683879 4 10.3744739 4.06917132 9.0625 4.125 C6 4 6 4 4 2 C2.68 1.34 1.36 0.68 0 0 Z " fill="#608B93" transform="translate(283,254)"/>
<path d="M0 0 C0.66 0.33 1.32 0.66 2 1 C3.59447464 1.08400529 5.19240545 1.10727467 6.7890625 1.09765625 C8.20058594 1.09282227 8.20058594 1.09282227 9.640625 1.08789062 C10.62546875 1.07951172 11.6103125 1.07113281 12.625 1.0625 C14.11386719 1.05573242 14.11386719 1.05573242 15.6328125 1.04882812 C18.0886016 1.03702145 20.54427104 1.020554 23 1 C23 1.33 23 1.66 23 2 C16.4 2.33 9.8 2.66 3 3 C2.01 5.31 1.02 7.62 0 10 C-1.65 9.67 -3.3 9.34 -5 9 C-4.360625 8.071875 -3.72125 7.14375 -3.0625 6.1875 C-0.91377907 3.15780057 -0.91377907 3.15780057 0 0 Z " fill="#6D7396" transform="translate(372,233)"/>
<path d="M0 0 C0.99 0.33 1.98 0.66 3 1 C2.41321669 4.52069985 1.64350079 6.71299843 0 10 C-2.97 10 -5.94 10 -9 10 C-8.34 8.68 -7.68 7.36 -7 6 C-5.02 6 -3.04 6 -1 6 C-0.67 4.02 -0.34 2.04 0 0 Z " fill="#2A2E5A" transform="translate(368,233)"/>
<path d="M0 0 C1.4540625 0.0309375 1.4540625 0.0309375 2.9375 0.0625 C2.9375 3.0625 2.9375 3.0625 1.9375 5.0625 C-1.53575181 6.2202506 -4.42317448 6.13116652 -8.0625 6.0625 C-8.0625 4.4125 -8.0625 2.7625 -8.0625 1.0625 C-6.7425 1.0625 -5.4225 1.0625 -4.0625 1.0625 C-3.0625 0.0625 -3.0625 0.0625 0 0 Z " fill="#263364" transform="translate(236.0625,219.9375)"/>
<path d="M0 0 C0.66 0 1.32 0 2 0 C2 0.66 2 1.32 2 2 C3.65 2.33 5.3 2.66 7 3 C6.67 4.32 6.34 5.64 6 7 C9.3 7 12.6 7 16 7 C16 7.66 16 8.32 16 9 C12.04 9 8.08 9 4 9 C4 8.34 4 7.68 4 7 C2.68 6.67 1.36 6.34 0 6 C-1.125 2.25 -1.125 2.25 0 0 Z " fill="#3C4771" transform="translate(375,217)"/>
<path d="M0 0 C6.52307692 0.61538462 6.52307692 0.61538462 8.9375 2.5625 C9.288125 3.036875 9.63875 3.51125 10 4 C9.25 5.9375 9.25 5.9375 8 8 C5.875 8.75 5.875 8.75 4 9 C4.33 7.68 4.66 6.36 5 5 C4.071875 4.7834375 4.071875 4.7834375 3.125 4.5625 C1 4 1 4 -1 3 C-0.67 2.01 -0.34 1.02 0 0 Z " fill="#202B66" transform="translate(271,233)"/>
<path d="M0 0 C3.96 0 7.92 0 12 0 C12.33 1.32 12.66 2.64 13 4 C13.66 4 14.32 4 15 4 C15 5.32 15 6.64 15 8 C15.66 8 16.32 8 17 8 C16.67 8.66 16.34 9.32 16 10 C15.01 9.34 14.02 8.68 13 8 C13.33 7.01 13.66 6.02 14 5 C11.35261084 3.5393715 10.10551666 3 7 3 C6.67 3.99 6.34 4.98 6 6 C6 4.68 6 3.36 6 2 C4.02 2.33 2.04 2.66 0 3 C0 2.01 0 1.02 0 0 Z " fill="#5E6484" transform="translate(379,201)"/>
<path d="M0 0 C12.54 0 25.08 0 38 0 C38 0.33 38 0.66 38 1 C26.78 1 15.56 1 4 1 C4 1.99 4 2.98 4 4 C2.68 3.34 1.36 2.68 0 2 C0 1.34 0 0.68 0 0 Z " fill="#A4BCBE" transform="translate(91,267)"/>
<path d="M0 0 C0.66 0.33 1.32 0.66 2 1 C1.01 2.485 1.01 2.485 0 4 C-0.63292383 6.11280345 -0.63292383 6.11280345 -1 8 C-2.32 8.33 -3.64 8.66 -5 9 C-5 10.98 -5 12.96 -5 15 C-5.66 15 -6.32 15 -7 15 C-7.125 8.375 -7.125 8.375 -6 5 C-5.34 5 -4.68 5 -4 5 C-4 4.34 -4 3.68 -4 3 C-3.34 3 -2.68 3 -2 3 C-2 2.34 -2 1.68 -2 1 C-1.34 0.67 -0.68 0.34 0 0 Z " fill="#52577D" transform="translate(224,202)"/>
<path d="M0 0 C2.97 0 5.94 0 9 0 C9.33 1.65 9.66 3.3 10 5 C8.37419034 4.88601335 6.74932843 4.75844341 5.125 4.625 C4.22007812 4.55539062 3.31515625 4.48578125 2.3828125 4.4140625 C0 4 0 4 -2 2 C-1.34 2 -0.68 2 0 2 C0 1.34 0 0.68 0 0 Z " fill="#5B8A91" transform="translate(319,263)"/>
<path d="M0 0 C1.97909398 -0.02686553 3.95828971 -0.04633375 5.9375 -0.0625 C7.03964844 -0.07410156 8.14179688 -0.08570313 9.27734375 -0.09765625 C12 0 12 0 13 1 C13.04092937 3.33297433 13.04241723 5.66705225 13 8 C12.34 8 11.68 8 11 8 C11 6.35 11 4.7 11 3 C7.37 3 3.74 3 0 3 C0 2.01 0 1.02 0 0 Z " fill="#4F5676" transform="translate(344,234)"/>
<path d="M0 0 C1.9375 0.75 1.9375 0.75 4 2 C5.09808356 5.04784529 5.05493459 7.77674742 4.87890625 10.984375 C4.83056641 11.91894531 4.78222656 12.85351562 4.73242188 13.81640625 C4.67634766 14.78449219 4.62027344 15.75257813 4.5625 16.75 C4.51029297 17.73355469 4.45808594 18.71710938 4.40429688 19.73046875 C4.27488563 22.15398849 4.13993095 24.57706864 4 27 C3.34 26.67 2.68 26.34 2 26 C2.03480469 24.24623047 2.03480469 24.24623047 2.0703125 22.45703125 C2.08907821 20.90886058 2.10727755 19.36068297 2.125 17.8125 C2.14175781 17.04357422 2.15851563 16.27464844 2.17578125 15.48242188 C2.21331822 11.10936517 1.82331439 8.04144095 0 4 C0 2.68 0 1.36 0 0 Z " fill="#69A3A8" transform="translate(185,231)"/>
<path d="M0 0 C-1.50223584 4.20626034 -4.28550034 5.73900021 -8 8 C-8.66 7.67 -9.32 7.34 -10 7 C-10 4 -10 4 -8.375 1.8125 C-5.39500988 -0.46170299 -3.66075376 -0.3327958 0 0 Z " fill="#535C80" transform="translate(306,235)"/>
<path d="M0 0 C2.9375 1.1875 2.9375 1.1875 6 3 C6.875 5.6875 6.875 5.6875 7 8 C4 9 4 9 1.8125 8.0625 C1.214375 7.711875 0.61625 7.36125 0 7 C0 4.69 0 2.38 0 0 Z " fill="#455D7B" transform="translate(181,255)"/>
<path d="M0 0 C1.74965358 -0.05429959 3.49979787 -0.09292823 5.25 -0.125 C6.22453125 -0.14820313 7.1990625 -0.17140625 8.203125 -0.1953125 C11.0196498 0.00137219 12.60949036 0.55431084 15 2 C14.67 3.65 14.34 5.3 14 7 C11.03 6.505 11.03 6.505 8 6 C9.32 5.34 10.64 4.68 12 4 C12 3.34 12 2.68 12 2 C11.38511719 2.02320313 10.77023437 2.04640625 10.13671875 2.0703125 C8.92435547 2.09738281 8.92435547 2.09738281 7.6875 2.125 C6.88699219 2.14820313 6.08648437 2.17140625 5.26171875 2.1953125 C3 2 3 2 0 0 Z " fill="#93B1B3" transform="translate(318,253)"/>
<path d="M0 0 C1.65 1.32 3.3 2.64 5 4 C4.2575 4.12375 3.515 4.2475 2.75 4.375 C-0.97838339 5.22235986 -3.2941453 6.2941453 -6 9 C-6.99 8.67 -7.98 8.34 -9 8 C-3.85714286 1.42857143 -3.85714286 1.42857143 0 0 Z " fill="#4D7683" transform="translate(166,245)"/>
<path d="M0 0 C0.66 0 1.32 0 2 0 C2 0.99 2 1.98 2 3 C-4.6276327 6.8741903 -9.29711007 8.6212008 -17 8 C-16.67 7.34 -16.34 6.68 -16 6 C-13.890625 5.40234375 -13.890625 5.40234375 -11.25 4.9375 C-9.95835937 4.70353516 -9.95835937 4.70353516 -8.640625 4.46484375 C-7.76921875 4.31144531 -6.8978125 4.15804687 -6 4 C-4.33254087 3.67065379 -2.66562162 3.33851662 -1 3 C-0.67 2.01 -0.34 1.02 0 0 Z " fill="#4B5171" transform="translate(254,236)"/>
<path d="M0 0 C1.670625 0.495 1.670625 0.495 3.375 1 C9.51738866 2.54106192 15.88567822 2.75295922 22 1 C22 1.99 22 2.98 22 4 C18.2571173 5.2538657 14.90082554 4.93078505 11 4.625 C9.783125 4.53476563 8.56625 4.44453125 7.3125 4.3515625 C4.75049553 4.07965165 2.45996299 3.72568908 0 3 C0 2.01 0 1.02 0 0 Z " fill="#434B70" transform="translate(224,232)"/>
<path d="M0 0 C1.32 0.33 2.64 0.66 4 1 C2.27430361 2.13031603 0.54428261 3.25403107 -1.1875 4.375 C-2.15042969 5.00148437 -3.11335938 5.62796875 -4.10546875 6.2734375 C-6.69803936 7.81988312 -9.16853116 8.97508075 -12 10 C-11.42655063 7.13275314 -11.1385485 6.1385485 -9 4 C-7.34608154 3.60828247 -5.67654729 3.27942455 -4 3 C-2.66457061 2.67516582 -1.33038449 2.3449145 0 2 C0 1.34 0 0.68 0 0 Z " fill="#5E6685" transform="translate(131,208)"/>
<path d="M0 0 C5.75 0.875 5.75 0.875 8 2 C8 2.66 8 3.32 8 4 C8.99 4.33 9.98 4.66 11 5 C8.98177083 4.96744792 6.96354167 4.93489583 4.9453125 4.90234375 C2.91814596 4.87350758 2.91814596 4.87350758 1 6 C0.34 5.67 -0.32 5.34 -1 5 C-0.67 3.35 -0.34 1.7 0 0 Z " fill="#64959A" transform="translate(312,270)"/>
<path d="M0 0 C0.66 0 1.32 0 2 0 C2 0.66 2 1.32 2 2 C1.525625 2.45375 1.05125 2.9075 0.5625 3.375 C-1.22093737 5.22977487 -1.5691993 6.50135592 -2 9 C-4.31 8.34 -6.62 7.68 -9 7 C-9 6.34 -9 5.68 -9 5 C-8.01 5 -7.02 5 -6 5 C-6 4.34 -6 3.68 -6 3 C-5.195625 2.690625 -4.39125 2.38125 -3.5625 2.0625 C-1.10919595 1.23664655 -1.10919595 1.23664655 0 0 Z " fill="#507B8F" transform="translate(140,216)"/>
<path d="M0 0 C1.32 0.66 2.64 1.32 4 2 C2.68 2 1.36 2 0 2 C0.25561323 4.3431213 0.59270772 6.67843403 1 9 C1.66 9.33 2.32 9.66 3 10 C1.1875 10.625 1.1875 10.625 -1 11 C-1.99 10.34 -2.98 9.68 -4 9 C-2.94124926 5.59687262 -1.99097846 2.98646769 0 0 Z " fill="#636883" transform="translate(220,230)"/>
<path d="M0 0 C-0.33 0.99 -0.66 1.98 -1 3 C-1.99 3 -2.98 3 -4 3 C-4 4.65 -4 6.3 -4 8 C-3.01 8 -2.02 8 -1 8 C-1.33 8.66 -1.66 9.32 -2 10 C-2.78375 9.67 -3.5675 9.34 -4.375 9 C-6.84332497 7.88133489 -6.84332497 7.88133489 -9 8 C-7.07834179 2.53066508 -6.10288444 0 0 0 Z " fill="#8BA9AD" transform="translate(261,253)"/>
<path d="M0 0 C2.31 0 4.62 0 7 0 C7 0.99 7 1.98 7 3 C7.99 2.67 8.98 2.34 10 2 C10.66 2.33 11.32 2.66 12 3 C11.67 3.99 11.34 4.98 11 6 C9.02 6 7.04 6 5 6 C5 5.01 5 4.02 5 3 C2.525 2.01 2.525 2.01 0 1 C0 0.67 0 0.34 0 0 Z " fill="#222D62" transform="translate(284,235)"/>
<path d="M0 0 C2.62651431 0.28119857 5.25069335 0.57443838 7.875 0.875 C8.62136719 0.95363281 9.36773437 1.03226563 10.13671875 1.11328125 C15.7734375 1.7734375 15.7734375 1.7734375 18 4 C16.02 4.66 14.04 5.32 12 6 C12 5.34 12 4.68 12 4 C11.34 4 10.68 4 10 4 C10 3.34 10 2.68 10 2 C8.35 2 6.7 2 5 2 C5 2.66 5 3.32 5 4 C4.01 4 3.02 4 2 4 C2 3.34 2 2.68 2 2 C1.34 1.34 0.68 0.68 0 0 Z " fill="#535C7D" transform="translate(233,216)"/>
<path d="M0 0 C3.96 0.33 7.92 0.66 12 1 C12 1.66 12 2.32 12 3 C9.47524538 4.26237731 7.68799534 4.09856404 4.875 4.0625 C3.96492188 4.05347656 3.05484375 4.04445313 2.1171875 4.03515625 C1.41851562 4.02355469 0.71984375 4.01195312 0 4 C0 2.68 0 1.36 0 0 Z " fill="#64929B" transform="translate(318,254)"/>
<path d="M0 0 C1.67542976 0.28604898 3.34385343 0.61781233 5 1 C4.67 1.99 4.34 2.98 4 4 C0.44706507 5.14947895 -0.79976669 5.0868937 -4.3125 3.5625 C-5.199375 3.046875 -6.08625 2.53125 -7 2 C-7 1.67 -7 1.34 -7 1 C-5.5459375 1.0309375 -5.5459375 1.0309375 -4.0625 1.0625 C-1.12534105 1.35618499 -1.12534105 1.35618499 0 0 Z " fill="#4B4D73" transform="translate(128,255)"/>
<path d="M0 0 C0.66 0.33 1.32 0.66 2 1 C-0.25 3.5 -0.25 3.5 -3 6 C-4.32 6 -5.64 6 -7 6 C-7 6.66 -7 7.32 -7 8 C-7.99 8 -8.98 8 -10 8 C-9.67 8.99 -9.34 9.98 -9 11 C-9.99 10.67 -10.98 10.34 -12 10 C-10.69522778 6.08568335 -9.01326694 5.42187412 -5.5625 3.25 C-4.57378906 2.61578125 -3.58507812 1.9815625 -2.56640625 1.328125 C-1.29603516 0.67070312 -1.29603516 0.67070312 0 0 Z " fill="#7F96A3" transform="translate(141,213)"/>
<path d="M0 0 C0 3 0 3 -2.0625 5.125 C-5.45157837 7.28824151 -8.02771052 7.68844788 -12 8 C-4.57142857 0 -4.57142857 0 0 0 Z " fill="#53597D" transform="translate(126,184)"/>
<path d="M0 0 C1.98 0.99 1.98 0.99 4 2 C4 2.66 4 3.32 4 4 C6.97 4 9.94 4 13 4 C12.67 4.99 12.34 5.98 12 7 C10.203125 7.828125 10.203125 7.828125 8 8 C5.859375 7.109375 5.859375 7.109375 3.75 5.75 C3.04359375 5.31171875 2.3371875 4.8734375 1.609375 4.421875 C1.07828125 3.95265625 0.5471875 3.4834375 0 3 C0 2.01 0 1.02 0 0 Z " fill="#4F547C" transform="translate(99,241)"/>
<path d="M0 0 C1.36523593 3.10280894 0.89965502 4.30631624 -0.1875 7.625 C-1.94781917 10.90283569 -2.5458087 11.9280096 -6 13 C-4.58707905 8.1725201 -2.57025846 4.2837641 0 0 Z " fill="#5A5F82" transform="translate(374,211)"/>
<path d="M0 0 C3.33333333 0 6.66666667 0 10 0 C10.66 1.32 11.32 2.64 12 4 C8.82127065 5.39864092 7.69888978 4.89282517 4.3125 3.6875 C1 2 1 2 0 0 Z " fill="#688B9C" transform="translate(132,224)"/>
<path d="M0 0 C0.33 0.66 0.66 1.32 1 2 C0.01 2.495 0.01 2.495 -1 3 C-1.22609337 5.12364481 -1.22609337 5.12364481 0.5 6.625 C0.995 7.07875 1.49 7.5325 2 8 C0.02 8.99 0.02 8.99 -2 10 C-4 8 -4 8 -4.125 4.875 C-4.08375 3.92625 -4.0425 2.9775 -4 2 C-2.68 1.34 -1.36 0.68 0 0 Z " fill="#6E979B" transform="translate(316,255)"/>
<path d="M0 0 C2.0625 0.4375 2.0625 0.4375 4 1 C4.33 2.98 4.66 4.96 5 7 C4.01 7.495 4.01 7.495 3 8 C3 7.34 3 6.68 3 6 C2.01 6 1.02 6 0 6 C-0.38218767 4.34385343 -0.71395102 2.67542976 -1 1 C-0.67 0.67 -0.34 0.34 0 0 Z " fill="#5A939A" transform="translate(257,255)"/>
<path d="M0 0 C1.60379341 -0.05416188 3.20811406 -0.09286638 4.8125 -0.125 C5.70582031 -0.14820313 6.59914062 -0.17140625 7.51953125 -0.1953125 C10 0 10 0 13 2 C12.67 2.99 12.34 3.98 12 5 C9.15449988 4.33989524 6.47674001 3.48275034 3.75 2.4375 C3.04359375 2.16808594 2.3371875 1.89867187 1.609375 1.62109375 C1.07828125 1.41613281 0.5471875 1.21117187 0 1 C0 0.67 0 0.34 0 0 Z " fill="#5E6583" transform="translate(241,208)"/>
<path d="M0 0 C2.91375388 1.45687694 3.35777779 3.50753903 4.6875 6.4375 C5.14511719 7.42621094 5.60273438 8.41492188 6.07421875 9.43359375 C6.37972656 10.28050781 6.68523437 11.12742188 7 12 C6.67 12.66 6.34 13.32 6 14 C5.01 14 4.02 14 3 14 C3 11.36 3 8.72 3 6 C2.34 6 1.68 6 1 6 C0.67 4.02 0.34 2.04 0 0 Z " fill="#666A87" transform="translate(396,212)"/>
<path d="M0 0 C2.125 0.9375 2.125 0.9375 4 2 C2.9024777 4.99324263 2.32317108 5.84610901 -0.625 7.25 C-1.40875 7.4975 -2.1925 7.745 -3 8 C-3 7.01 -3 6.02 -3 5 C-2.01 5 -1.02 5 0 5 C0 4.34 0 3.68 0 3 C-0.66 3 -1.32 3 -2 3 C-2 2.34 -2 1.68 -2 1 C-1.34 0.67 -0.68 0.34 0 0 Z " fill="#4E5572" transform="translate(146,243)"/>
<path d="M0 0 C2.31 0 4.62 0 7 0 C7.33 1.98 7.66 3.96 8 6 C5.0280615 4.87548273 2.66559313 3.77706209 0 2 C0 1.34 0 0.68 0 0 Z " fill="#77A0A6" transform="translate(96,270)"/>
<path d="M0 0 C0 2 0 2 -1.3125 3.625 C-3 5 -3 5 -6 5 C-6.33 5.99 -6.66 6.98 -7 8 C-9.475 7.01 -9.475 7.01 -12 6 C-11.46375 5.7525 -10.9275 5.505 -10.375 5.25 C-7.81253405 3.95818042 -7.81253405 3.95818042 -4.875 1.875 C-2 0 -2 0 0 0 Z " fill="#7A9FA4" transform="translate(142,261)"/>
<path d="M0 0 C0.33 0 0.66 0 1 0 C1 7.26 1 14.52 1 22 C0.01 22 -0.98 22 -2 22 C-2 21.34 -2 20.68 -2 20 C-1.34 20 -0.68 20 0 20 C0 13.4 0 6.8 0 0 Z " fill="#41466B" transform="translate(307,211)"/>
<path d="M0 0 C1.98 0.66 3.96 1.32 6 2 C6 2.66 6 3.32 6 4 C5.01 4.33 4.02 4.66 3 5 C1.31461399 6.99665314 1.31461399 6.99665314 0 9 C-0.66 8.67 -1.32 8.34 -2 8 C-2 7.01 -2 6.02 -2 5 C-1.01 5 -0.02 5 1 5 C0.67 3.35 0.34 1.7 0 0 Z " fill="#82A9AF" transform="translate(328,263)"/>
<path d="M0 0 C2.625 0.375 2.625 0.375 5 1 C1.25 4 1.25 4 -1 4 C-1 4.66 -1 5.32 -1 6 C-2.32 6.33 -3.64 6.66 -5 7 C-5.33 6.34 -5.66 5.68 -6 5 C-5.38125 4.54625 -4.7625 4.0925 -4.125 3.625 C-1.94080167 2.02891081 -1.94080167 2.02891081 0 0 Z " fill="#708B93" transform="translate(182,263)"/>
<path d="M0 0 C2.31 0 4.62 0 7 0 C7.33 0.66 7.66 1.32 8 2 C5.35541621 3.32229189 3.32238699 3.09677194 0.375 3.0625 C-0.62789063 3.05347656 -1.63078125 3.04445313 -2.6640625 3.03515625 C-3.43492187 3.02355469 -4.20578125 3.01195312 -5 3 C-5.33 2.34 -5.66 1.68 -6 1 C-4.02 1 -2.04 1 0 1 C0 0.67 0 0.34 0 0 Z " fill="#58898E" transform="translate(320,273)"/>
<path d="M0 0 C0.99 0.33 1.98 0.66 3 1 C2.64950425 4.24208567 2.43778819 5.61527704 -0.0625 7.8125 C-0.701875 8.204375 -1.34125 8.59625 -2 9 C-1.34 6.03 -0.68 3.06 0 0 Z " fill="#1E2B65" transform="translate(368,233)"/>
<path d="M0 0 C1.33332095 2.6666419 0.67102033 4.16680303 0 7 C-0.22429687 6.36578125 -0.44859375 5.7315625 -0.6796875 5.078125 C-1.83785757 2.77983843 -1.83785757 2.77983843 -4.3828125 2.171875 C-5.74019531 1.96304688 -5.74019531 1.96304688 -7.125 1.75 C-8.03507813 1.60046875 -8.94515625 1.4509375 -9.8828125 1.296875 C-10.58148438 1.19890625 -11.28015625 1.1009375 -12 1 C-12 0.67 -12 0.34 -12 0 C-7.74936599 -1.15926382 -4.29942266 -0.90949326 0 0 Z " fill="#6F7590" transform="translate(247,226)"/>
<path d="M0 0 C2.31 0 4.62 0 7 0 C6.67 1.32 6.34 2.64 6 4 C3.66666667 4 1.33333333 4 -1 4 C-0.67 2.68 -0.34 1.36 0 0 Z " fill="#55818E" transform="translate(148,211)"/>
<path d="M0 0 C1.093125 0.226875 2.18625 0.45375 3.3125 0.6875 C2.3225 2.1725 2.3225 2.1725 1.3125 3.6875 C-1.3275 3.3575 -3.9675 3.0275 -6.6875 2.6875 C-4.58035839 -0.41123767 -3.86755884 -0.32775922 0 0 Z " fill="#212F6E" transform="translate(239.6875,202.3125)"/>
<path d="M0 0 C2.97851562 0.53710938 2.97851562 0.53710938 5.95703125 1.07421875 C3.95703125 3.07421875 3.95703125 3.07421875 1.79296875 3.26953125 C0.57480469 3.23472656 0.57480469 3.23472656 -0.66796875 3.19921875 C-1.48523438 3.18117188 -2.3025 3.163125 -3.14453125 3.14453125 C-3.77101562 3.12132812 -4.3975 3.098125 -5.04296875 3.07421875 C-2.61517882 0.0950065 -2.61517882 0.0950065 0 0 Z " fill="#6D9094" transform="translate(138.04296875,289.92578125)"/>
<path d="M0 0 C-2.68841859 2.25245881 -4.64641875 3.88213958 -8 5 C-7.67 3.68 -7.34 2.36 -7 1 C-7.66 0.67 -8.32 0.34 -9 0 C-5.93109813 -1.53445094 -3.29905734 -0.54984289 0 0 Z " fill="#719398" transform="translate(155,284)"/>
<path d="M0 0 C1.45742463 -0.08096803 2.91612807 -0.13917774 4.375 -0.1875 C5.18710937 -0.22230469 5.99921875 -0.25710938 6.8359375 -0.29296875 C7.55007813 -0.19628906 8.26421875 -0.09960938 9 0 C9.66 0.99 10.32 1.98 11 3 C9.54176788 3.0270043 8.08339325 3.04639787 6.625 3.0625 C5.81289063 3.07410156 5.00078125 3.08570313 4.1640625 3.09765625 C2 3 2 3 0 2 C0 1.34 0 0.68 0 0 Z " fill="#5A8C93" transform="translate(286,272)"/>
<path d="M0 0 C-0.6875 2.375 -0.6875 2.375 -2 5 C-4.625 6.3125 -4.625 6.3125 -7 7 C-7.33 6.01 -7.66 5.02 -8 4 C-2.25 0 -2.25 0 0 0 Z " fill="#7A9CA2" transform="translate(153,254)"/>
<path d="M0 0 C1.32 0.33 2.64 0.66 4 1 C3.6875 3.375 3.6875 3.375 3 6 C2.01 6.66 1.02 7.32 0 8 C0 5.36 0 2.72 0 0 Z " fill="#494F72" transform="translate(252,203)"/>
<path d="M0 0 C0.33 0 0.66 0 1 0 C0.979375 0.78375 0.95875 1.5675 0.9375 2.375 C0.81315937 4.98114961 0.81315937 4.98114961 2 7 C0.625 8.5 0.625 8.5 -1 10 C-1.66 10 -2.32 10 -3 10 C-2.49287967 6.28111761 -1.88391785 3.26545761 0 0 Z " fill="#7299A0" transform="translate(251,261)"/>
<path d="M0 0 C0.66 1.32 1.32 2.64 2 4 C0.02 4.66 -1.96 5.32 -4 6 C-4.33 4.68 -4.66 3.36 -5 2 C-3.35 1.34 -1.7 0.68 0 0 Z " fill="#2C3765" transform="translate(402,235)"/>
<path d="M0 0 C0 0.33 0 0.66 0 1 C-3 2 -6 3 -9 4 C-9.33 4.99 -9.66 5.98 -10 7 C-10.33 6.01 -10.66 5.02 -11 4 C-7.65667474 -0.27945633 -5.29105716 -0.4070044 0 0 Z " fill="#6C8A97" transform="translate(153,210)"/>
<path d="M0 0 C1.65 0 3.3 0 5 0 C2.22719294 3.08089673 -0.06326356 4.68775452 -4 6 C-3.67 5.01 -3.34 4.02 -3 3 C-2.34 3 -1.68 3 -1 3 C-0.67 2.01 -0.34 1.02 0 0 Z " fill="#73959C" transform="translate(159,278)"/>
<path d="M0 0 C0.99 0 1.98 0 3 0 C3 0.99 3 1.98 3 3 C1.35 3.66 -0.3 4.32 -2 5 C-2 5.66 -2 6.32 -2 7 C-2.66 7 -3.32 7 -4 7 C-3.67 6.01 -3.34 5.02 -3 4 C-2.34 4 -1.68 4 -1 4 C-0.67 2.68 -0.34 1.36 0 0 Z " fill="#5F8A92" transform="translate(143,259)"/>
<path d="M0 0 C2.97 1.65 5.94 3.3 9 5 C8.34 5.66 7.68 6.32 7 7 C6.01 7 5.02 7 4 7 C3.67 5.68 3.34 4.36 3 3 C2.01 3 1.02 3 0 3 C0 2.01 0 1.02 0 0 Z " fill="#67718D" transform="translate(134,235)"/>
<path d="M0 0 C1.65 0.33 3.3 0.66 5 1 C4.484375 1.4125 3.96875 1.825 3.4375 2.25 C2.963125 2.8275 2.48875 3.405 2 4 C2.22757731 6.16299211 2.22757731 6.16299211 3 8 C0.03 7.505 0.03 7.505 -3 7 C-2.34 6.34 -1.68 5.68 -1 5 C-0.35232207 2.42938689 -0.35232207 2.42938689 0 0 Z " fill="#585E85" transform="translate(228,208)"/>
<path d="M0 0 C0.598125 0.20625 1.19625 0.4125 1.8125 0.625 C-1.1575 3.1 -1.1575 3.1 -4.1875 5.625 C-4.5175 4.305 -4.8475 2.985 -5.1875 1.625 C-2.1875 -0.375 -2.1875 -0.375 0 0 Z " fill="#4C537A" transform="translate(347.1875,216.375)"/>
<path d="M0 0 C2.97 1.65 5.94 3.3 9 5 C9 5.66 9 6.32 9 7 C6.5625 6.625 6.5625 6.625 4 6 C3.67 5.34 3.34 4.68 3 4 C2.01 3.67 1.02 3.34 0 3 C0 2.01 0 1.02 0 0 Z " fill="#6B7386" transform="translate(178,194)"/>
<path d="M0 0 C0.33 1.32 0.66 2.64 1 4 C-0.65 4.66 -2.3 5.32 -4 6 C-4.66 5.34 -5.32 4.68 -6 4 C-4.02 2.68 -2.04 1.36 0 0 Z " fill="#465071" transform="translate(133,179)"/>
<path d="M0 0 C0.66 0.66 1.32 1.32 2 2 C0.72125 2.144375 -0.5575 2.28875 -1.875 2.4375 C-4.25692894 2.70642746 -5.84452691 2.92226346 -8 4 C-8.33 3.01 -8.66 2.02 -9 1 C-5.98675805 -0.50662097 -3.31713623 -0.17770373 0 0 Z " fill="#666C8C" transform="translate(147,175)"/>
<path d="M0 0 C0.99 0.33 1.98 0.66 3 1 C2.67 2.65 2.34 4.3 2 6 C0.35 5.67 -1.3 5.34 -3 5 C-2.34 4.67 -1.68 4.34 -1 4 C-0.34786708 1.97536745 -0.34786708 1.97536745 0 0 Z " fill="#6A9A9F" transform="translate(125,283)"/>
<path d="M0 0 C1.32 0 2.64 0 4 0 C3.67 1.98 3.34 3.96 3 6 C1.68 5.67 0.36 5.34 -1 5 C-0.67 3.35 -0.34 1.7 0 0 Z " fill="#99B2B3" transform="translate(312,270)"/>
<path d="M0 0 C3.3 0.33 6.6 0.66 10 1 C8 3 8 3 6.0546875 3.1953125 C4.03645833 3.13020833 2.01822917 3.06510417 0 3 C0 2.01 0 1.02 0 0 Z " fill="#5B9093" transform="translate(95,268)"/>
<path d="M0 0 C1.32 0 2.64 0 4 0 C4.33 1.32 4.66 2.64 5 4 C4.01 4.495 4.01 4.495 3 5 C0.875 4.0625 0.875 4.0625 -1 3 C-0.67 2.01 -0.34 1.02 0 0 Z " fill="#5F97A1" transform="translate(263,267)"/>
<path d="M0 0 C0.99 0 1.98 0 3 0 C2.67 1.65 2.34 3.3 2 5 C-0.97 4.505 -0.97 4.505 -4 4 C-2.68 3.34 -1.36 2.68 0 2 C0 1.34 0 0.68 0 0 Z " fill="#89AAAB" transform="translate(330,255)"/>
<path d="M0 0 C1.32 0 2.64 0 4 0 C4 0.66 4 1.32 4 2 C4.66 2.33 5.32 2.66 6 3 C5.67 3.66 5.34 4.32 5 5 C2.525 4.01 2.525 4.01 0 3 C0 2.01 0 1.02 0 0 Z " fill="#729BA3" transform="translate(154,236)"/>
<path d="M0 0 C1.64826111 2.96687001 2.44271087 5.65626525 3 9 C0.525 8.01 0.525 8.01 -2 7 C-1.34 4.69 -0.68 2.38 0 0 Z " fill="#4B5274" transform="translate(276,227)"/>
<path d="M0 0 C2.97 1.65 5.94 3.3 9 5 C4.23374833 6.19156292 3.12120649 5.3415946 -1 3 C-0.67 2.01 -0.34 1.02 0 0 Z " fill="#85B1B5" transform="translate(174,224)"/>
<path d="M0 0 C1.98 0.99 3.96 1.98 6 3 C5.67 3.66 5.34 4.32 5 5 C4.01 5 3.02 5 2 5 C1.34 5.66 0.68 6.32 0 7 C0 4.69 0 2.38 0 0 Z " fill="#3F6882" transform="translate(181,255)"/>
<path d="M0 0 C2 3 2 3 2 6 C0.35 6.33 -1.3 6.66 -3 7 C-1.125 1.125 -1.125 1.125 0 0 Z " fill="#86ABAD" transform="translate(247,269)"/>
<path d="M0 0 C-2.61941217 1.74627478 -4.03824877 2.38722388 -7 3 C-7 2.01 -7 1.02 -7 0 C-7.66 -0.33 -8.32 -0.66 -9 -1 C-5.79937313 -2.60031344 -3.27728194 -1.03173691 0 0 Z " fill="#3D4473" transform="translate(298,235)"/>
<path d="M0 0 C3.63 0.33 7.26 0.66 11 1 C11 1.33 11 1.66 11 2 C9.02 2 7.04 2 5 2 C5 2.66 5 3.32 5 4 C4.01 4 3.02 4 2 4 C2 3.34 2 2.68 2 2 C1.34 1.34 0.68 0.68 0 0 Z " fill="#7C81A4" transform="translate(233,216)"/>
<path d="M0 0 C-1.75 2.0625 -1.75 2.0625 -4 4 C-6.25 3.75 -6.25 3.75 -8 3 C-5.53387212 -0.1151089 -3.89156016 -0.31553191 0 0 Z " fill="#58607B" transform="translate(144,202)"/>
<path d="M0 0 C5.53846154 0.61538462 5.53846154 0.61538462 7.875 2.5625 C8.431875 3.2740625 8.431875 3.2740625 9 4 C8.01 4.495 8.01 4.495 7 5 C4.5249829 3.88568235 2.32116581 2.41849022 0 1 C0 0.67 0 0.34 0 0 Z " fill="#82A3A5" transform="translate(112,281)"/>
<path d="M0 0 C0.66 0 1.32 0 2 0 C2.33 1.98 2.66 3.96 3 6 C0.69 6 -1.62 6 -4 6 C-3.01 5.67 -2.02 5.34 -1 5 C-1 4.34 -1 3.68 -1 3 C-0.34 3 0.32 3 1 3 C0.67 2.01 0.34 1.02 0 0 Z " fill="#78A2A8" transform="translate(296,268)"/>
<path d="M0 0 C1.32 0.66 2.64 1.32 4 2 C2.02 2.99 0.04 3.98 -2 5 C-2.33 4.01 -2.66 3.02 -3 2 C-2.01 1.34 -1.02 0.68 0 0 Z " fill="#6A9196" transform="translate(170,271)"/>
<path d="M0 0 C1.32 0 2.64 0 4 0 C4.33 1.32 4.66 2.64 5 4 C4.01 4 3.02 4 2 4 C1.67 4.66 1.34 5.32 1 6 C0.67 4.02 0.34 2.04 0 0 Z " fill="#6EA0A7" transform="translate(282,267)"/>
<path d="M0 0 C1.32 0.33 2.64 0.66 4 1 C4.33 3.31 4.66 5.62 5 8 C2.5 5.6875 2.5 5.6875 0 3 C0 2.01 0 1.02 0 0 Z " fill="#8588A2" transform="translate(384,213)"/>
<path d="M0 0 C0.66 0.33 1.32 0.66 2 1 C1.34 2.32 0.68 3.64 0 5 C-1.98 5 -3.96 5 -6 5 C-4.06745228 2.9754262 -2.36841312 1.57894208 0 0 Z " fill="#6E7798" transform="translate(102,198)"/>
<path d="M0 0 C3.96 1.98 3.96 1.98 8 4 C4.79937313 5.60031344 2.27728194 4.03173691 -1 3 C-0.67 2.01 -0.34 1.02 0 0 Z " fill="#636784" transform="translate(169,189)"/>
</svg>